<svg xmlns="http://www.w3.org/2000/svg" width="966.748" height="468.492" viewBox="0 0 966.748 468.492">
  <path id="Path_643" data-name="Path 643" d="M1854.15,700.843c-67.5.571-90.34,5.281-141.613-10.454-61.6-18.9-24.266-53.948-1.907-47.239,14.594,4.379,21.7,22.107-5.29,36.463-36.189,19.241-103.964-35.933-81.8-61.859,8.643-10.109,23.612-4.59,31.609,3.446,8.889,8.936,12.178,28.986-22.882,19.757-6.1-1.6-24.133-5.89-40.531-11.13-46.522-14.871-86.111-63.269-111.886-102.705-50.75-77.659-53.878-87.463-47.9-84.882s-12.2,14.358-21.493,12.636-21.3-13.946-21.3-13.946,9.414-.077,21.531-7.93,17.463-14.539,19.958-14.008,11.37,18.875,6.784,17.111-2.661-37.632-6.806-53.656S1425.334,362,1425.334,362s30.372-10.215,54.937,14.086,35.933,43.174,23.88,42.165-41.616-10.455-58.07-7.968-29.962,9.522-45.806,18.926-31.473,44.7-31.891,61.315-34.329-16.468-32.532-50.539,1.616-39.331,5.073-39.636,35.838,31.408,26.547,29.685-48.187-51.795-51.761-65.609,72.527-52.371,79.463-50.63-68.143,46.521-75.47,47.828-19.534-18.53-26.683-46.158-5.734-74.569,2.534-79.068,48.306,15.8,68.907,29.337,44.728,52.1,50.227,64.237c14.968,33.049,6.091,35.6-9.745,4.583-23.838-46.7,36.948,8.781,18.841,25.93l-14.816,11c-20.349,13.457-50.985,30.32-57.628,30.548s-36.322-36.771-19.859-33.583,25.985,34.233,42.365,48.61,38.417,36.23,46.216,49.1S1476.9,573.586,1477.684,605.4s-23.464,42.125-28.991,29.4,27.236-30.441,38.212-13.918-6.327,38.868-44.015,48.621-33.6-46.41-13.628-41.156c11.461,3.016,14.827,15.479,8.733,27.76-13.406,27.014-52.866,42-112.842,44.373-106.82,4.221-436.063.706-436.063.706" transform="translate(-888.245 -234.913)" fill="none" stroke="#0676b9" stroke-linecap="round" stroke-linejoin="round" stroke-width="1.672"/>
</svg>
